<?xml version="1.0" encoding="UTF-8" standalone="yes"?>
<!DOCTYPE svg PUBLIC "-//W3C//DTD SVG 1.1//EN" "http://www.w3.org/Graphics/SVG/1.1/DTD/svg11.dtd">

<svg width="500" height="400" viewBox="0 0 500 400" xmlns="http://www.w3.org/2000/svg" xmlns:xlink="http://www.w3.org/1999/xlink" version="1.1" baseProfile="full">
    <g transform="scale(1.000000,-1.000000) translate(0,-400)">
        <path d="M 1.000000 1.000000 L 1.000000 386.744986 L 1.000000 386.744986 L 487.747851 386.744986 L 487.747851 386.744986 L 487.747851 1.000000 L 487.747851 1.000000 L 1.000000 1.000000 Z" transform="scale(1.000000,1.000000) translate(4.909742,4.336676)" fill="#212121" opacity="1.000000"></path>
        <path d="M 1.102643 1.000000 L 19.988930 1.000000 L 29.124145 14.869135 L 30.150573 14.869135 L 39.337109 1.000000 L 59.147182 1.000000 L 41.851860 23.857637 L 59.095861 46.267882 L 39.439752 46.267882 L 31.023038 32.154715 L 30.047930 32.154715 L 21.682537 46.267882 L 1.000000 46.267882 L 18.192680 23.247557 Z" transform="scale(1.000000,1.000000) translate(138.287830,215.834424)" fill="#ffffff" opacity="0.850000"></path>
        <path d="M 21.208306 1.000000 C 43.661978 1.000000 54.888815 7.551579 64.278533 28.500454 L 105.511641 119.737255 L 82.241471 119.737255 L 54.582628 49.530213 L 52.643448 49.530213 L 24.882543 119.737255 L 1.000000 119.737255 L 41.212487 31.816685 L 39.579493 27.287199 C 36.313504 18.389993 30.087713 14.911994 19.779436 14.911994 C 17.227882 14.911994 14.472204 14.992878 12.328899 15.235529 L 12.328899 1.404418 C 15.186639 1.161767 18.452628 1.000000 21.208306 1.000000 Z" transform="scale(1.000000,1.000000) translate(245.598241,117.545180)" fill="#ffffff" opacity="0.850000"></path>
        <path d="M 496.400200 2.109500 L 497.121500 2.219600 L 497.817700 2.398600 L 498.485200 2.642900 L 499.120200 2.948800 L 499.719200 3.312700 L 500.278400 3.730900 L 500.794300 4.199700 L 501.263200 4.715600 L 501.681400 5.274800 L 502.045300 5.873800 L 502.351200 6.508800 L 502.595500 7.176300 L 502.774500 7.872500 L 502.884600 8.593800 L 502.922100 9.336600 L 502.922100 395.081600 L 502.884600 395.824300 L 502.774500 396.545600 L 502.595500 397.241800 L 502.351200 397.909300 L 502.045300 398.544300 L 501.681400 399.143300 L 501.263200 399.702500 L 500.794300 400.218400 L 500.278400 400.687300 L 499.719200 401.105500 L 499.120200 401.469400 L 498.485200 401.775300 L 497.817700 402.019600 L 497.121500 402.198600 L 496.400200 402.308700 L 495.657500 402.346200 L 8.909700 402.346200 L 8.166900 402.308700 L 7.445600 402.198600 L 6.749400 402.019600 L 6.081900 401.775300 L 5.446900 401.469400 L 4.847900 401.105500 L 4.288700 400.687300 L 3.772800 400.218400 L 3.303900 399.702500 L 2.885800 399.143300 L 2.521900 398.544300 L 2.216000 397.909300 L 1.971700 397.241800 L 1.792700 396.545600 L 1.682600 395.824300 L 1.645100 395.081600 L 1.645100 9.336600 L 1.682600 8.593800 L 1.792700 7.872500 L 1.971700 7.176300 L 2.216000 6.508800 L 2.521900 5.873800 L 2.885800 5.274800 L 3.303900 4.715600 L 3.772800 4.199700 L 4.288700 3.730900 L 4.847900 3.312700 L 5.446900 2.948800 L 6.081900 2.642900 L 6.749400 2.398600 L 7.445600 2.219600 L 8.166900 2.109500 L 8.909700 2.072000 L 495.657500 2.072000 Z M 495.657500 9.336600 L 8.909700 9.336600 L 8.909700 395.081600 L 495.657500 395.081600 Z" transform="scale(1.000000,1.000000) translate(-3.000000,-4.000000)" fill="#000000" opacity="1.000000"></path>
        <path d="M 41.478999 1.000000 C 51.518856 1.000000 56.751901 7.897788 59.635719 16.885928 L 108.231886 169.998505 L 221.979049 169.998505 C 228.066919 169.998505 232.232091 173.656475 232.232091 179.404758 C 232.232091 184.943962 228.066919 188.601946 221.979049 188.601946 L 108.018397 188.601946 C 97.124466 188.601946 92.211214 184.630430 89.327399 175.433213 L 42.653831 25.456248 L 40.838191 25.456248 L 20.758872 94.748736 C 19.050017 100.496677 15.845840 103.214183 10.826020 103.214183 C 5.165383 103.214183 1.000000 99.242806 1.000000 94.121588 C 1.000000 92.031236 1.534022 90.150217 1.961245 88.582126 L 24.603859 15.736081 C 27.273971 7.270627 32.080171 1.000000 41.478999 1.000000 Z" transform="scale(1.000000,1.000000) translate(132.667622,104.467431)" fill="#ffffff" opacity="0.850000"></path>
    </g>
</svg>