<?xml version="1.0" encoding="UTF-8" standalone="yes"?>
<!DOCTYPE svg PUBLIC "-//W3C//DTD SVG 1.1//EN" "http://www.w3.org/Graphics/SVG/1.1/DTD/svg11.dtd">

<svg width="500" height="400" viewBox="0 0 500 400" xmlns="http://www.w3.org/2000/svg" xmlns:xlink="http://www.w3.org/1999/xlink" version="1.1" baseProfile="full">
    <g transform="scale(1.000000,-1.000000) translate(0,-400)">
        <path d="M 1.000000 1.000000 L 1.000000 386.744989 L 1.000000 386.744989 L 487.747861 386.744989 L 487.747861 386.744989 L 487.747861 1.000000 L 487.747861 1.000000 L 1.000000 1.000000 Z" transform="scale(1.000000,1.000000) translate(4.909742,4.336676)" fill="#2c2d2d" opacity="1.000000"></path>
        <path d="M 1.102643 1.000000 L 19.988930 1.000000 L 29.124144 14.869135 L 30.150573 14.869135 L 39.337109 1.000000 L 59.147182 1.000000 L 41.851859 23.857636 L 59.095860 46.267881 L 39.439752 46.267881 L 31.023037 32.154714 L 30.047930 32.154714 L 21.682537 46.267881 L 1.000000 46.267881 L 18.192679 23.247557 Z" transform="scale(1.000000,1.000000) translate(144.283666,217.983425)" fill="#ffffff" opacity="0.850000"></path>
        <path d="M 19.238392 1.000000 C 39.503272 1.000000 49.635712 6.912928 58.110116 25.819699 L 95.323804 108.162700 L 74.322020 108.162700 L 49.359372 44.799468 L 47.609224 44.799468 L 22.554463 108.162700 L 1.000000 108.162700 L 37.292558 28.812662 L 35.818748 24.724712 C 32.871129 16.694810 27.252231 13.555848 17.948809 13.555848 C 15.645981 13.555848 13.158928 13.628847 11.224553 13.847844 L 11.224553 1.364996 C 13.803720 1.145998 16.751338 1.000000 19.238392 1.000000 Z" transform="scale(1.000000,1.000000) translate(248.283673,126.197783)" fill="#ffffff" opacity="0.850000"></path>
        <path d="M 496.400300 2.109500 L 497.121600 2.219600 L 497.817800 2.398600 L 498.485300 2.642900 L 499.120300 2.948800 L 499.719300 3.312700 L 500.278500 3.730900 L 500.794400 4.199700 L 501.263300 4.715600 L 501.681500 5.274800 L 502.045400 5.873800 L 502.351300 6.508800 L 502.595600 7.176300 L 502.774600 7.872500 L 502.884700 8.593800 L 502.922200 9.336600 L 502.922200 395.081600 L 502.884700 395.824300 L 502.774600 396.545600 L 502.595600 397.241800 L 502.351300 397.909300 L 502.045400 398.544300 L 501.681500 399.143300 L 501.263300 399.702500 L 500.794400 400.218400 L 500.278500 400.687300 L 499.719300 401.105500 L 499.120300 401.469400 L 498.485300 401.775300 L 497.817800 402.019600 L 497.121600 402.198600 L 496.400300 402.308700 L 495.657600 402.346200 L 8.909700 402.346200 L 8.166900 402.308700 L 7.445600 402.198600 L 6.749400 402.019600 L 6.081900 401.775300 L 5.446900 401.469400 L 4.847900 401.105500 L 4.288700 400.687300 L 3.772800 400.218400 L 3.303900 399.702500 L 2.885800 399.143300 L 2.521900 398.544300 L 2.216000 397.909300 L 1.971700 397.241800 L 1.792700 396.545600 L 1.682600 395.824300 L 1.645100 395.081600 L 1.645100 9.336600 L 1.682600 8.593800 L 1.792700 7.872500 L 1.971700 7.176300 L 2.216000 6.508800 L 2.521900 5.873800 L 2.885800 5.274800 L 3.303900 4.715600 L 3.772800 4.199700 L 4.288700 3.730900 L 4.847900 3.312700 L 5.446900 2.948800 L 6.081900 2.642900 L 6.749400 2.398600 L 7.445600 2.219600 L 8.166900 2.109500 L 8.909700 2.072000 L 495.657600 2.072000 Z M 495.657600 9.336600 L 8.909700 9.336600 L 8.909700 395.081600 L 495.657600 395.081600 Z" transform="scale(1.000000,1.000000) translate(-3.000000,-4.000000)" fill="#000000" opacity="1.000000"></path>
        <path d="M 37.412039 1.000000 C 46.443182 1.000000 51.150459 7.250596 53.744537 15.395414 L 97.458205 154.142046 L 199.777090 154.142046 C 205.253307 154.142046 209.000000 157.456804 209.000000 162.665748 C 209.000000 167.685231 205.253307 171.000000 199.777090 171.000000 L 97.266165 171.000000 C 87.466757 171.000000 83.047143 167.401116 80.453068 159.066838 L 38.468834 23.161616 L 36.835613 23.161616 L 18.773680 85.952664 C 17.236516 91.161298 14.354265 93.623832 9.838791 93.623832 C 4.746883 93.623832 1.000000 90.025074 1.000000 85.384359 C 1.000000 83.490136 1.480369 81.785606 1.864668 80.364643 L 22.232359 14.353453 C 24.634202 6.682279 28.957519 1.000000 37.412039 1.000000 Z" transform="scale(1.000000,1.000000) translate(145.000000,114.000000)" fill="#ffffff" opacity="0.850000"></path>
    </g>
</svg>