<?xml version="1.0" encoding="UTF-8" standalone="yes"?>
<!DOCTYPE svg PUBLIC "-//W3C//DTD SVG 1.1//EN" "http://www.w3.org/Graphics/SVG/1.1/DTD/svg11.dtd">

<svg width="30" height="30" viewBox="0 0 30 30" xmlns="http://www.w3.org/2000/svg" xmlns:xlink="http://www.w3.org/1999/xlink" version="1.1" baseProfile="full">
    <g transform="scale(0.060000,-0.060000) translate(0,-500)">
        <path d="M 1.000000 2.398690 L 25.024568 2.398690 L 25.024568 54.808454 C 25.024568 67.067561 31.771193 75.048328 42.878443 75.048328 C 54.232519 75.048328 59.498178 68.301700 59.498178 55.548934 L 59.498178 2.398690 L 83.522746 2.398690 L 83.522746 60.979147 C 83.522746 82.617716 72.662324 94.959102 52.504725 94.959102 C 39.587404 94.959102 30.619331 88.788404 26.505533 78.997567 L 25.024568 78.997567 L 25.024568 92.984483 L 1.000000 92.984483 Z M 139.058990 1.000000 C 151.811756 1.000000 161.438034 6.677039 166.127762 16.467873 L 167.608722 16.467873 L 167.608722 2.398690 L 191.633295 2.398690 L 191.633295 127.622633 L 167.608722 127.622633 L 167.608722 78.503908 L 166.127762 78.503908 C 161.602593 88.377024 151.482647 94.465443 139.058990 94.465443 C 116.104007 94.465443 102.281660 76.940673 102.281660 47.814996 L 102.281660 47.650446 C 102.281660 18.689321 116.433116 1.000000 139.058990 1.000000 Z M 147.204307 20.910772 C 134.533811 20.910772 126.717594 30.948434 126.717594 47.650446 L 126.717594 47.814996 C 126.717594 64.352457 134.533811 74.554669 147.204307 74.554669 C 159.874803 74.554669 167.855571 64.352457 167.855571 47.732717 L 167.855571 47.568167 C 167.855571 30.948434 159.957074 20.910772 147.204307 20.910772 Z" transform="scale(1.000000,1.000000) translate(245.866705,264.409989)" fill="#ffffff" opacity="1.000000"></path>
        <path d="M 15.845757 1.000000 L 151.505258 1.000000 C 160.207945 1.000000 166.009736 6.460509 166.009736 14.651271 C 166.009736 22.842034 160.207945 28.302542 151.505258 28.302542 L 44.001502 28.302542 L 44.001502 28.985108 L 105.773510 92.463524 C 147.921811 135.635667 160.207945 155.941926 160.207945 182.903188 C 160.207945 222.662523 128.127463 251.330179 83.760828 251.330179 C 33.421769 251.330179 6.289868 218.567136 2.706409 193.312287 C 2.365126 191.264603 2.194486 189.387559 2.194486 187.169216 C 2.194486 179.149100 7.313713 173.517949 16.357681 173.517949 C 24.719085 173.517949 28.131902 177.954599 30.179593 184.268330 C 38.540994 210.717661 57.140852 224.539567 83.760828 224.539567 C 110.210169 224.539567 129.492595 206.110352 129.492595 181.026144 C 129.492595 160.378585 121.643120 147.239249 88.538777 112.599143 L 9.702685 30.350234 C 2.365126 22.671394 1.000000 19.941141 1.000000 13.627427 C 1.000000 5.948586 6.801790 1.000000 15.845757 1.000000 Z" transform="scale(1.000000,1.000000) translate(61.500000,106.967377)" fill="#ffffff" opacity="1.000000"></path>
    </g>
</svg>