<?xml version="1.0" encoding="UTF-8" standalone="yes"?>
<!DOCTYPE svg PUBLIC "-//W3C//DTD SVG 1.1//EN" "http://www.w3.org/Graphics/SVG/1.1/DTD/svg11.dtd">

<svg width="500" height="400" viewBox="0 0 500 400" xmlns="http://www.w3.org/2000/svg" xmlns:xlink="http://www.w3.org/1999/xlink" version="1.1" baseProfile="full">
    <g transform="scale(1.000000,-1.000000) translate(0,-400)">
        <path d="M 1.000000 1.000000 L 1.000000 388.445095 L 1.000000 388.445095 L 488.005857 388.445095 L 488.005857 388.445095 L 488.005857 1.000000 L 488.005857 1.000000 L 1.000000 1.000000 Z" transform="scale(1.000000,1.000000) translate(5.100430,4.868596)" fill="#2d2d2d" opacity="1.000000"></path>
        <path d="M 1.000000 1.993337 L 21.684780 1.993337 L 21.684780 39.155822 C 21.684780 46.635064 25.658127 51.718612 32.377759 51.718612 C 39.389548 51.718612 42.603285 47.277812 42.603285 39.389548 L 42.603285 1.993337 L 63.288065 1.993337 L 63.288065 44.005643 C 63.288065 59.606875 55.750391 68.546907 41.317791 68.546907 C 32.144032 68.546907 25.599695 63.989244 22.794980 56.860591 L 21.684780 56.860591 L 21.684780 67.027686 L 1.000000 67.027686 Z M 101.560750 1.000000 C 110.851372 1.000000 117.571003 5.031779 120.609446 11.926706 L 121.719646 11.926706 L 121.719646 1.993337 L 142.462857 1.993337 L 142.462857 91.393655 L 121.719646 91.393655 L 121.719646 56.568433 L 120.609446 56.568433 C 117.512572 63.755518 110.500782 68.021023 101.560750 68.021023 C 85.141476 68.021023 75.617129 55.750391 75.617129 34.598159 L 75.617129 34.481296 C 75.617129 13.445927 85.433634 1.000000 101.560750 1.000000 Z M 109.215287 17.886727 C 101.502319 17.886727 96.652498 24.138906 96.652498 34.481296 L 96.652498 34.598159 C 96.652498 44.823685 101.560750 51.134296 109.215287 51.134296 C 116.869824 51.134296 121.894940 44.882117 121.894940 34.539727 L 121.894940 34.422864 C 121.894940 24.080474 116.986688 17.886727 109.215287 17.886727 Z" transform="scale(1.000000,1.000000) translate(249.000000,206.816278)" fill="#ffffff" opacity="0.850000"></path>
        <path d="M 2.507812 1.000000 L 115.245759 1.000000 L 115.245759 23.153239 L 37.883403 23.153239 L 37.883403 25.472949 L 73.374979 60.848540 C 103.763191 91.004781 112.578092 105.618959 112.578092 124.640588 L 112.578092 124.988545 C 112.578092 152.593104 89.612954 172.426632 58.412844 172.426632 C 24.777036 172.426632 1.115986 150.853321 1.000000 120.233138 L 1.231971 120.001167 L 25.588935 120.001167 L 25.704921 120.349123 C 25.704921 138.674839 38.231359 150.969306 57.021017 150.969306 C 75.346733 150.969306 86.597330 138.906810 86.597330 122.552849 L 86.597330 122.204892 C 86.597330 108.634583 80.218126 100.051653 58.064887 76.970530 L 2.507812 18.629802 Z" transform="scale(1.000000,1.000000) translate(125.969467,113.286684)" fill="#ffffff" opacity="0.850000"></path>
        <path d="M 496.843700 1.691800 L 497.560000 1.801200 L 498.251400 1.978900 L 498.914100 2.221500 L 499.544700 2.525300 L 500.139500 2.886600 L 500.694900 3.301800 L 501.207200 3.767400 L 501.672800 4.279700 L 502.088100 4.835100 L 502.449400 5.429900 L 502.753200 6.060500 L 502.995800 6.723200 L 503.173500 7.414600 L 503.282900 8.130900 L 503.320100 8.868500 L 503.320100 396.313600 L 503.282900 397.051100 L 503.173500 397.767400 L 502.995800 398.458800 L 502.753200 399.121500 L 502.449400 399.752100 L 502.088100 400.346900 L 501.672800 400.902300 L 501.207200 401.414600 L 500.694900 401.880200 L 500.139500 402.295500 L 499.544700 402.656800 L 498.914100 402.960600 L 498.251400 403.203200 L 497.560000 403.380900 L 496.843700 403.490300 L 496.106200 403.527500 L 9.100400 403.527500 L 8.362800 403.490300 L 7.646500 403.380900 L 6.955100 403.203200 L 6.292400 402.960600 L 5.661800 402.656800 L 5.067000 402.295500 L 4.511600 401.880200 L 3.999300 401.414600 L 3.533700 400.902300 L 3.118400 400.346900 L 2.757200 399.752100 L 2.453400 399.121500 L 2.210800 398.458800 L 2.033100 397.767400 L 1.923700 397.051100 L 1.886500 396.313600 L 1.886500 8.868500 L 1.923700 8.130900 L 2.033100 7.414600 L 2.210800 6.723200 L 2.453400 6.060500 L 2.757200 5.429900 L 3.118400 4.835100 L 3.533700 4.279700 L 3.999300 3.767400 L 4.511600 3.301800 L 5.067000 2.886600 L 5.661800 2.525300 L 6.292400 2.221500 L 6.955100 1.978900 L 7.646500 1.801200 L 8.362800 1.691800 L 9.100400 1.654600 L 496.106200 1.654600 Z M 496.106200 8.868500 L 9.100400 8.868500 L 9.100400 396.313600 L 496.106200 396.313600 Z" transform="scale(1.000000,1.000000) translate(-3.000000,-3.000000)" fill="#000000" opacity="1.000000"></path>
    </g>
</svg>