<?xml version="1.0" encoding="UTF-8" standalone="yes"?>
<!DOCTYPE svg PUBLIC "-//W3C//DTD SVG 1.1//EN" "http://www.w3.org/Graphics/SVG/1.1/DTD/svg11.dtd">

<svg width="500" height="400" viewBox="0 0 500 400" xmlns="http://www.w3.org/2000/svg" xmlns:xlink="http://www.w3.org/1999/xlink" version="1.1" baseProfile="full">
    <g transform="scale(1.000000,-1.000000) translate(0,-400)">
        <path d="M 1.000000 1.000000 L 1.000000 388.445092 L 1.000000 388.445092 L 488.005860 388.445092 L 488.005860 388.445092 L 488.005860 1.000000 L 488.005860 1.000000 L 1.000000 1.000000 Z" transform="scale(1.000000,1.000000) translate(5.100430,4.868596)" fill="#2d2d2d" opacity="1.000000"></path>
        <path d="M 1.000000 1.787359 L 17.395586 1.787359 L 17.395586 31.243836 C 17.395586 37.172183 20.545021 41.201607 25.871271 41.201607 C 31.429097 41.201607 33.976433 37.681651 33.976433 31.429097 L 33.976433 1.787359 L 50.372020 1.787359 L 50.372020 35.087999 C 50.372020 47.454161 44.397357 54.540389 32.957499 54.540389 C 25.686010 54.540389 20.498706 50.927802 18.275575 45.277346 L 17.395586 45.277346 L 17.395586 53.336194 L 1.000000 53.336194 Z M 80.708486 1.000000 C 88.072605 1.000000 93.398855 4.195750 95.807246 9.660945 L 96.687235 9.660945 L 96.687235 1.787359 L 113.129137 1.787359 L 113.129137 72.649638 L 96.687235 72.649638 L 96.687235 45.045770 L 95.807246 45.045770 C 93.352540 50.742541 87.794714 54.123552 80.708486 54.123552 C 67.693910 54.123552 60.144530 44.397357 60.144530 27.631249 L 60.144530 27.538618 C 60.144530 10.865141 67.925486 1.000000 80.708486 1.000000 Z M 86.775779 14.385097 C 80.662171 14.385097 76.818008 19.340825 76.818008 27.538618 L 76.818008 27.631249 C 76.818008 35.736412 80.708486 40.738455 86.775779 40.738455 C 92.843072 40.738455 96.826181 35.782727 96.826181 27.584934 L 96.826181 27.492303 C 96.826181 19.294510 92.935703 14.385097 86.775779 14.385097 Z" transform="scale(1.000000,1.000000) translate(258.107581,198.590632)" fill="#ffffff" opacity="0.850000"></path>
        <path d="M 2.100676 1.000000 L 84.397359 1.000000 L 84.397359 17.171468 L 27.924224 17.171468 L 27.924224 18.864815 L 53.832439 44.688363 C 76.015290 66.701879 82.450010 77.369967 82.450010 91.255416 L 82.450010 91.509418 C 82.450010 111.660252 65.685870 126.138372 42.910348 126.138372 C 18.356811 126.138372 1.084667 110.390242 1.000000 88.038056 L 1.169335 87.868721 L 18.949482 87.868721 L 19.034150 88.122723 C 19.034150 101.500168 28.178226 110.474909 41.894340 110.474909 C 55.271784 110.474909 63.484519 101.669503 63.484519 89.731403 L 63.484519 89.477401 C 63.484519 79.571319 58.827814 73.305934 42.656346 56.457127 L 2.100676 13.869440 Z" transform="scale(1.000000,1.000000) translate(165.205999,136.021955)" fill="#ffffff" opacity="0.850000"></path>
        <path d="M 496.843700 1.691800 L 497.560000 1.801200 L 498.251400 1.978900 L 498.914100 2.221500 L 499.544700 2.525300 L 500.139500 2.886600 L 500.694900 3.301800 L 501.207200 3.767400 L 501.672800 4.279700 L 502.088100 4.835100 L 502.449400 5.429900 L 502.753200 6.060500 L 502.995800 6.723200 L 503.173500 7.414600 L 503.282900 8.130900 L 503.320100 8.868500 L 503.320100 396.313600 L 503.282900 397.051100 L 503.173500 397.767400 L 502.995800 398.458800 L 502.753200 399.121500 L 502.449400 399.752100 L 502.088100 400.346900 L 501.672800 400.902300 L 501.207200 401.414600 L 500.694900 401.880200 L 500.139500 402.295500 L 499.544700 402.656800 L 498.914100 402.960600 L 498.251400 403.203200 L 497.560000 403.380900 L 496.843700 403.490300 L 496.106200 403.527500 L 9.100400 403.527500 L 8.362800 403.490300 L 7.646500 403.380900 L 6.955100 403.203200 L 6.292400 402.960600 L 5.661800 402.656800 L 5.067000 402.295500 L 4.511600 401.880200 L 3.999300 401.414600 L 3.533700 400.902300 L 3.118400 400.346900 L 2.757200 399.752100 L 2.453400 399.121500 L 2.210800 398.458800 L 2.033100 397.767400 L 1.923700 397.051100 L 1.886500 396.313600 L 1.886500 8.868500 L 1.923700 8.130900 L 2.033100 7.414600 L 2.210800 6.723200 L 2.453400 6.060500 L 2.757200 5.429900 L 3.118400 4.835100 L 3.533700 4.279700 L 3.999300 3.767400 L 4.511600 3.301800 L 5.067000 2.886600 L 5.661800 2.525300 L 6.292400 2.221500 L 6.955100 1.978900 L 7.646500 1.801200 L 8.362800 1.691800 L 9.100400 1.654600 L 496.106200 1.654600 Z M 496.106200 8.868500 L 9.100400 8.868500 L 9.100400 396.313600 L 496.106200 396.313600 Z" transform="scale(1.000000,1.000000) translate(-3.000000,-3.000000)" fill="#000000" opacity="1.000000"></path>
    </g>
</svg>