<?xml version="1.0" encoding="UTF-8" standalone="yes"?>
<!DOCTYPE svg PUBLIC "-//W3C//DTD SVG 1.1//EN" "http://www.w3.org/Graphics/SVG/1.1/DTD/svg11.dtd">

<svg width="45" height="40" viewBox="0 0 45 40" xmlns="http://www.w3.org/2000/svg" xmlns:xlink="http://www.w3.org/1999/xlink" version="1.1" baseProfile="full">
    <g transform="scale(0.100000,-0.100000) translate(0,-400)">
        <path d="M 1.000000 1.000000 L 1.000000 382.833676 L 1.000000 382.833676 L 434.841877 382.833676 L 434.841877 382.833676 L 434.841877 1.000000 L 434.841877 1.000000 L 1.000000 1.000000 Z" transform="scale(1.000000,1.000000) translate(7.268892,8.119726)" fill="#f98e0f" opacity="1.000000"></path>
        <path d="M 452.852800 1.898100 L 453.573600 2.008100 L 454.269200 2.187000 L 454.936200 2.431100 L 455.570700 2.736800 L 456.169200 3.100400 L 456.728000 3.518300 L 457.243500 3.986800 L 457.712000 4.502300 L 458.129900 5.061100 L 458.493500 5.659600 L 458.799200 6.294100 L 459.043300 6.961100 L 459.222200 7.656700 L 459.332200 8.377500 L 459.369600 9.119700 L 459.369600 390.953400 L 459.332200 391.695500 L 459.222200 392.416300 L 459.043300 393.111900 L 458.799200 393.778900 L 458.493500 394.413400 L 458.129900 395.011900 L 457.712000 395.570700 L 457.243500 396.086200 L 456.728000 396.554700 L 456.169200 396.972600 L 455.570700 397.336200 L 454.936200 397.641900 L 454.269200 397.886000 L 453.573600 398.064900 L 452.852800 398.174900 L 452.110700 398.212300 L 18.268800 398.212300 L 17.526600 398.174900 L 16.805800 398.064900 L 16.110200 397.886000 L 15.443200 397.641900 L 14.808700 397.336200 L 14.210200 396.972600 L 13.651400 396.554700 L 13.135900 396.086200 L 12.667400 395.570700 L 12.249500 395.011900 L 11.885900 394.413400 L 11.580200 393.778900 L 11.336100 393.111900 L 11.157200 392.416300 L 11.047200 391.695500 L 11.009800 390.953400 L 11.009800 9.119700 L 11.047200 8.377500 L 11.157200 7.656700 L 11.336100 6.961100 L 11.580200 6.294100 L 11.885900 5.659600 L 12.249500 5.061100 L 12.667400 4.502300 L 13.135900 3.986800 L 13.651400 3.518300 L 14.210200 3.100400 L 14.808700 2.736800 L 15.443200 2.431100 L 16.110200 2.187000 L 16.805800 2.008100 L 17.526600 1.898100 L 18.268800 1.860700 L 452.110700 1.860700 Z M 452.110700 9.119700 L 18.268800 9.119700 L 18.268800 390.953400 L 452.110700 390.953400 Z" transform="scale(1.000000,1.000000) translate(-10.000000,0.000000)" fill="#000000" opacity="1.000000"></path>
    </g>
</svg>