<?xml version="1.0" encoding="UTF-8" standalone="yes"?>
<!DOCTYPE svg PUBLIC "-//W3C//DTD SVG 1.1//EN" "http://www.w3.org/Graphics/SVG/1.1/DTD/svg11.dtd">

<svg width="30" height="30" viewBox="0 0 30 30" xmlns="http://www.w3.org/2000/svg" xmlns:xlink="http://www.w3.org/1999/xlink" version="1.1" baseProfile="full">
    <g transform="scale(0.060000,-0.060000) translate(0,-500)">
        <path d="M 66.646640 1.000000 C 82.928538 1.000000 91.415776 12.430987 96.092461 27.326993 L 174.903735 281.080803 L 359.371458 281.080803 C 369.244446 281.080803 376.000000 287.143220 376.000000 296.669691 C 376.000000 305.849871 369.244446 311.912245 359.371458 311.912245 L 174.556083 311.912245 C 156.888888 311.912245 148.921539 305.330242 144.244711 290.087802 L 68.551988 41.530563 L 65.607406 41.530563 L 33.043898 156.369555 C 30.272566 165.896311 25.076271 170.400023 16.935393 170.400023 C 7.755199 170.400023 1.000000 163.817571 1.000000 155.329468 C 1.000000 151.865843 1.866052 148.748436 2.558889 146.150363 L 39.279425 25.422789 C 43.609740 11.392321 51.404255 1.000000 66.646640 1.000000 Z M 207.813180 36.334416 C 214.222530 36.334416 217.513038 38.586286 222.362981 45.341840 L 263.414299 103.366509 L 264.106734 103.366509 L 304.810427 45.341840 C 309.833471 38.586286 313.125415 36.334416 319.360228 36.334416 C 328.021420 36.334416 334.429363 42.224433 334.429363 50.364885 C 334.429363 54.174754 333.563798 57.293568 330.965725 60.584077 L 283.333349 125.364327 L 331.311929 190.491770 C 333.910030 194.129227 334.950103 197.247053 334.950103 200.711259 C 334.950103 208.332520 328.713856 214.221684 320.400302 214.221684 C 314.337183 214.221684 310.700443 212.143079 306.196732 205.734297 L 266.877937 147.362131 L 266.012372 147.362131 L 225.480388 205.907548 C 221.149778 212.143079 217.339936 214.221684 210.930587 214.221684 C 202.617019 214.221684 195.688350 207.812902 195.688350 200.018391 C 195.688350 195.688066 196.727003 192.916741 199.845830 188.932931 L 245.399452 126.231299 L 197.074655 59.545437 C 194.476568 56.080365 193.782712 53.655421 193.782712 49.672449 C 193.782712 42.224433 199.845830 36.334416 207.813180 36.334416 Z" transform="scale(1.000000,1.000000) translate(61.500000,92.331408)" fill="#ffffff" opacity="0.850000"></path>
    </g>
</svg>