<?xml version="1.0" encoding="UTF-8"?>
<!--Generator: Apple Native CoreSVG 175.5-->
<!DOCTYPE svg
PUBLIC "-//W3C//DTD SVG 1.1//EN"
       "http://www.w3.org/Graphics/SVG/1.1/DTD/svg11.dtd">
<svg version="1.1" xmlns="http://www.w3.org/2000/svg" xmlns:xlink="http://www.w3.org/1999/xlink" width="26.4282" height="22.0825">
 <g>
  <rect height="22.0825" opacity="0" width="26.4282" x="0" y="0"/>
  <path d="M4.62646 22.0825C5.77393 22.0825 6.37207 21.2769 6.70166 20.2271L12.2559 2.34375L25.2563 2.34375C25.9521 2.34375 26.4282 1.9165 26.4282 1.24512C26.4282 0.598145 25.9521 0.170898 25.2563 0.170898L12.2314 0.170898C10.9863 0.170898 10.4248 0.634766 10.0952 1.70898L4.76074 19.2261L4.55322 19.2261L2.2583 11.1328C2.06299 10.4614 1.69678 10.144 1.12305 10.144C0.476074 10.144 0 10.6079 0 11.2061C0 11.4502 0.0610352 11.6699 0.109863 11.853L2.69775 20.3613C3.00293 21.3501 3.55225 22.0825 4.62646 22.0825ZM14.5752 19.5923C15.0269 19.5923 15.2588 19.4336 15.6006 18.9575L18.4937 14.8682L18.5425 14.8682L21.4111 18.9575C21.7651 19.4336 21.9971 19.5923 22.4365 19.5923C23.0469 19.5923 23.4985 19.1772 23.4985 18.6035C23.4985 18.335 23.4375 18.1152 23.2544 17.8833L19.8975 13.3179L23.2788 8.72803C23.4619 8.47168 23.5352 8.25195 23.5352 8.00781C23.5352 7.4707 23.0957 7.05566 22.5098 7.05566C22.0825 7.05566 21.8262 7.20215 21.5088 7.65381L18.7378 11.7676L18.6768 11.7676L15.8203 7.6416C15.5151 7.20215 15.2466 7.05566 14.7949 7.05566C14.209 7.05566 13.7207 7.50732 13.7207 8.05664C13.7207 8.36182 13.7939 8.55713 14.0137 8.83789L17.2241 13.2568L13.8184 17.9565C13.6353 18.2007 13.5864 18.3716 13.5864 18.6523C13.5864 19.1772 14.0137 19.5923 14.5752 19.5923Z" fill="#ffffff" fill-opacity="0.85"/>
 </g>
</svg>
