<?xml version="1.0" encoding="UTF-8" standalone="yes"?>
<!DOCTYPE svg PUBLIC "-//W3C//DTD SVG 1.1//EN" "http://www.w3.org/Graphics/SVG/1.1/DTD/svg11.dtd">

<svg width="880" height="400" viewBox="0 0 880 400" xmlns="http://www.w3.org/2000/svg" xmlns:xlink="http://www.w3.org/1999/xlink" version="1.1" baseProfile="full">
    <g transform="scale(1.000000,-1.000000) translate(0,-400)">
        <path d="M 1.000000 1.000000 L 1.000000 377.467406 L 1.000000 377.467406 L 860.409154 377.467406 L 860.409154 377.467406 L 860.409154 1.000000 L 860.409154 1.000000 L 1.000000 1.000000 Z" transform="scale(1.000000,1.000000) translate(8.101942,10.419556)" fill="#f98e0f" opacity="1.000000"></path>
        <path d="M 873.669400 2.147600 L 874.794400 2.319300 L 875.880200 2.598500 L 876.921200 2.979500 L 877.911700 3.456600 L 878.845800 4.024200 L 879.718100 4.676400 L 880.522700 5.407700 L 881.254000 6.212300 L 881.906200 7.084600 L 882.473800 8.018700 L 882.950900 9.009200 L 883.331900 10.050200 L 883.611100 11.136000 L 883.782800 12.261000 L 883.841300 13.419500 L 883.841300 389.886900 L 883.782800 391.045300 L 883.611100 392.170300 L 883.331900 393.256100 L 882.950900 394.297100 L 882.473800 395.287600 L 881.906200 396.221700 L 881.254000 397.094000 L 880.522700 397.898600 L 879.718100 398.629900 L 878.845800 399.282100 L 877.911700 399.849700 L 876.921200 400.326800 L 875.880200 400.707800 L 874.794400 400.987000 L 873.669400 401.158700 L 872.511000 401.217200 L 13.101900 401.217200 L 11.943400 401.158700 L 10.818400 400.987000 L 9.732600 400.707800 L 8.691600 400.326800 L 7.701100 399.849700 L 6.767000 399.282100 L 5.894700 398.629900 L 5.090100 397.898600 L 4.358800 397.094000 L 3.706700 396.221700 L 3.139100 395.287600 L 2.662000 394.297100 L 2.281000 393.256100 L 2.001800 392.170300 L 1.830100 391.045300 L 1.771600 389.886900 L 1.771600 13.419500 L 1.830100 12.261000 L 2.001800 11.136000 L 2.281000 10.050200 L 2.662000 9.009200 L 3.139100 8.018700 L 3.706700 7.084600 L 4.358800 6.212300 L 5.090100 5.407700 L 5.894700 4.676400 L 6.767000 4.024200 L 7.701100 3.456600 L 8.691600 2.979500 L 9.732600 2.598500 L 10.818400 2.319300 L 11.943400 2.147600 L 13.101900 2.089100 L 872.511000 2.089100 Z M 872.511000 13.419500 L 13.101900 13.419500 L 13.101900 389.886900 L 872.511000 389.886900 Z" transform="scale(1.000000,1.000000) translate(-4.000000,-2.000000)" fill="#000000" opacity="1.000000"></path>
    </g>
</svg>