<?xml version="1.0" encoding="UTF-8" standalone="yes"?>
<!DOCTYPE svg PUBLIC "-//W3C//DTD SVG 1.1//EN" "http://www.w3.org/Graphics/SVG/1.1/DTD/svg11.dtd">

<svg width="990" height="400" viewBox="0 0 990 400" xmlns="http://www.w3.org/2000/svg" xmlns:xlink="http://www.w3.org/1999/xlink" version="1.1" baseProfile="full">
    <g transform="scale(1.000000,-1.000000) translate(0,-400)">
        <path d="M 1.000000 1.000000 L 1.000000 388.445095 L 1.000000 388.445095 L 975.456837 388.445095 L 975.456837 388.445095 L 975.456837 1.000000 L 975.456837 1.000000 L 1.000000 1.000000 Z" transform="scale(1.000000,1.000000) translate(7.093894,4.868596)" fill="#2d2d2d" opacity="1.000000"></path>
        <path d="M 984.288200 1.691800 L 985.004500 1.801200 L 985.695900 1.978900 L 986.358600 2.221500 L 986.989200 2.525300 L 987.584000 2.886600 L 988.139400 3.301800 L 988.651700 3.767400 L 989.117300 4.279700 L 989.532600 4.835100 L 989.893900 5.429900 L 990.197700 6.060500 L 990.440300 6.723200 L 990.618000 7.414600 L 990.727400 8.130900 L 990.764600 8.868500 L 990.764600 396.313600 L 990.727400 397.051100 L 990.618000 397.767400 L 990.440300 398.458800 L 990.197700 399.121500 L 989.893900 399.752100 L 989.532600 400.346900 L 989.117300 400.902300 L 988.651700 401.414600 L 988.139400 401.880200 L 987.584000 402.295500 L 986.989200 402.656800 L 986.358600 402.960600 L 985.695900 403.203200 L 985.004500 403.380900 L 984.288200 403.490300 L 983.550700 403.527500 L 9.093800 403.527500 L 8.356200 403.490300 L 7.639900 403.380900 L 6.948500 403.203200 L 6.285800 402.960600 L 5.655200 402.656800 L 5.060400 402.295500 L 4.505000 401.880200 L 3.992700 401.414600 L 3.527100 400.902300 L 3.111800 400.346900 L 2.750500 399.752100 L 2.446700 399.121500 L 2.204100 398.458800 L 2.026400 397.767400 L 1.917000 397.051100 L 1.879800 396.313600 L 1.879800 8.868500 L 1.917000 8.130900 L 2.026400 7.414600 L 2.204100 6.723200 L 2.446700 6.060500 L 2.750500 5.429900 L 3.111800 4.835100 L 3.527100 4.279700 L 3.992700 3.767400 L 4.505000 3.301800 L 5.060400 2.886600 L 5.655200 2.525300 L 6.285800 2.221500 L 6.948500 1.978900 L 7.639900 1.801200 L 8.356200 1.691800 L 9.093800 1.654600 L 983.550700 1.654600 Z M 983.550700 8.868500 L 9.093800 8.868500 L 9.093800 396.313600 L 983.550700 396.313600 Z" transform="scale(1.000000,1.000000) translate(-1.000000,-3.000000)" fill="#000000" opacity="1.000000"></path>
    </g>
</svg>