<?xml version="1.0" encoding="UTF-8"?>
<!--Generator: Apple Native CoreSVG 175.5-->
<!DOCTYPE svg
PUBLIC "-//W3C//DTD SVG 1.1//EN"
       "http://www.w3.org/Graphics/SVG/1.1/DTD/svg11.dtd">
<svg version="1.1" xmlns="http://www.w3.org/2000/svg" xmlns:xlink="http://www.w3.org/1999/xlink" width="15.5208" height="14.5731">
 <g>
  <rect height="14.5731" opacity="0" width="15.5208" x="0" y="0"/>
  <path d="M1.99835 14.5731L9.30474 14.5731C10.6308 14.5731 11.3031 13.8961 11.3031 12.5606L11.3031 9.27008L10.4568 9.27008L10.4568 12.5422C10.4568 13.3127 10.0521 13.7268 9.26276 13.7268L2.04032 13.7268C1.25098 13.7268 0.846291 13.3127 0.846291 12.5422L0.846291 2.03937C0.846291 1.26889 1.25098 0.850051 2.04032 0.850051L9.26276 0.850051C10.0521 0.850051 10.4568 1.26889 10.4568 2.03937L10.4568 5.30257L11.3031 5.30257L11.3031 2.02098C11.3031 0.690225 10.6308 0.00375968 9.30474 0.00375968L1.99835 0.00375968C0.672315 0.00375968 0 0.690225 0 2.02098L0 12.5606C0 13.8961 0.672315 14.5731 1.99835 14.5731ZM5.99266 7.69816L13.3522 7.69816L14.3458 7.66774L13.7164 8.28092L12.5141 9.44029C12.4301 9.5148 12.3839 9.62657 12.3839 9.72679C12.3839 9.94397 12.5419 10.1114 12.7565 10.1114C12.8661 10.1114 12.9501 10.0694 13.034 9.99018L15.3854 7.58639C15.4883 7.48357 15.5208 7.38808 15.5208 7.28314C15.5208 7.1735 15.4883 7.0806 15.3854 6.9799L13.034 4.57399C12.9501 4.49477 12.8661 4.44808 12.7565 4.44808C12.5419 4.44808 12.3839 4.60653 12.3839 4.82583C12.3839 4.93076 12.4301 5.04253 12.5141 5.11916L13.7164 6.28113L14.3479 6.89643L13.3522 6.8613L5.99266 6.8613C5.76912 6.8613 5.58496 7.05701 5.58496 7.28314C5.58496 7.50928 5.76912 7.69816 5.99266 7.69816Z" fill="#ffffff" fill-opacity="0.85"/>
 </g>
</svg>
