<?xml version="1.0" encoding="UTF-8" standalone="yes"?>
<!DOCTYPE svg PUBLIC "-//W3C//DTD SVG 1.1//EN" "http://www.w3.org/Graphics/SVG/1.1/DTD/svg11.dtd">

<svg width="450" height="400" viewBox="0 0 450 400" xmlns="http://www.w3.org/2000/svg" xmlns:xlink="http://www.w3.org/1999/xlink" version="1.1" baseProfile="full">
    <g transform="scale(1.000000,-1.000000) translate(0,-400)">
        <path d="M 1.000000 1.000000 L 1.000000 391.432954 L 1.000000 391.432954 L 440.433455 391.432954 L 440.433455 391.432954 L 440.433455 1.000000 L 440.433455 1.000000 L 1.000000 1.000000 Z" transform="scale(1.000000,1.000000) translate(4.095406,3.497446)" fill="#1e1c3c" opacity="1.000000"></path>
        <path d="M 447.009300 1.822100 L 447.475900 1.893300 L 447.926300 2.009000 L 448.358100 2.167000 L 448.768900 2.364900 L 449.156400 2.600300 L 449.518100 2.870900 L 449.851900 3.174200 L 450.155200 3.508000 L 450.425800 3.869700 L 450.661200 4.257200 L 450.859100 4.668000 L 451.017100 5.099800 L 451.132900 5.550200 L 451.204100 6.016800 L 451.228400 6.497400 L 451.228400 396.930300 L 451.204100 397.410800 L 451.132900 397.877400 L 451.017100 398.327800 L 450.859100 398.759600 L 450.661200 399.170400 L 450.425800 399.557900 L 450.155200 399.919600 L 449.851900 400.253400 L 449.518100 400.556700 L 449.156400 400.827300 L 448.768900 401.062700 L 448.358100 401.260600 L 447.926300 401.418600 L 447.475900 401.534400 L 447.009300 401.605600 L 446.528800 401.629900 L 7.095400 401.629900 L 6.614800 401.605600 L 6.148200 401.534400 L 5.697800 401.418600 L 5.266000 401.260600 L 4.855200 401.062700 L 4.467700 400.827300 L 4.106000 400.556700 L 3.772200 400.253400 L 3.468900 399.919600 L 3.198300 399.557900 L 2.962900 399.170400 L 2.765000 398.759600 L 2.607000 398.327800 L 2.491200 397.877400 L 2.420000 397.410800 L 2.395700 396.930300 L 2.395700 6.497400 L 2.420000 6.016800 L 2.491200 5.550200 L 2.607000 5.099800 L 2.765000 4.668000 L 2.962900 4.257200 L 3.198300 3.869700 L 3.468900 3.508000 L 3.772200 3.174200 L 4.106000 2.870900 L 4.467700 2.600300 L 4.855200 2.364900 L 5.266000 2.167000 L 5.697800 2.009000 L 6.148200 1.893300 L 6.614800 1.822100 L 7.095400 1.797800 L 446.528800 1.797800 Z M 446.528800 6.497400 L 7.095400 6.497400 L 7.095400 396.930300 L 446.528800 396.930300 Z" transform="scale(1.000000,1.000000) translate(-2.000000,-2.000000)" fill="#000000" opacity="1.000000"></path>
    </g>
</svg>