<?xml version="1.0" encoding="UTF-8" standalone="yes"?>
<!DOCTYPE svg PUBLIC "-//W3C//DTD SVG 1.1//EN" "http://www.w3.org/Graphics/SVG/1.1/DTD/svg11.dtd">

<svg width="500" height="400" viewBox="0 0 500 400" xmlns="http://www.w3.org/2000/svg" xmlns:xlink="http://www.w3.org/1999/xlink" version="1.1" baseProfile="full">
    <g transform="scale(1.000000,-1.000000) translate(0,-400)">
        <path d="M 1.000000 1.000000 L 1.000000 386.744989 L 1.000000 386.744989 L 487.747861 386.744989 L 487.747861 386.744989 L 487.747861 1.000000 L 487.747861 1.000000 L 1.000000 1.000000 Z" transform="scale(1.000000,1.000000) translate(5.626070,6.127506)" fill="#2d2d2d" opacity="1.000000"></path>
        <path d="M 25.650373 1.000000 C 40.842368 1.000000 50.510001 6.804201 50.510001 15.891923 L 50.510001 15.958256 C 50.510001 22.293128 44.692681 26.273152 35.652816 27.002823 L 35.652816 27.234991 C 42.474566 28.329497 48.124481 32.143687 48.124481 38.146890 L 48.124481 38.213223 C 48.124481 46.040604 39.335724 51.247801 25.566670 51.247801 C 12.132426 51.247801 3.259966 45.476767 2.464793 36.521713 L 2.422942 36.057377 L 16.359400 36.057377 L 16.401251 36.389046 C 16.819764 39.904733 20.251564 42.193247 25.566670 42.193247 C 30.756222 42.193247 33.853213 40.004234 33.853213 36.554880 L 33.853213 36.488546 C 33.853213 33.105526 30.254008 30.883346 24.352985 30.883346 L 17.907896 30.883346 L 17.907896 22.624796 L 24.436687 22.624796 C 31.132883 22.624796 34.899494 20.502117 34.899494 16.654761 L 34.899494 16.588427 C 34.899494 13.039572 31.342139 10.552057 25.650373 10.552057 C 19.916755 10.552057 16.233847 12.906905 15.731632 16.090924 L 15.647929 16.455759 L 1.000000 16.455759 L 1.041851 16.024590 C 1.920727 6.970036 11.379104 1.000000 25.650373 1.000000 Z" transform="scale(1.000000,1.000000) translate(142.606419,213.344468)" fill="#ffffff" opacity="0.850000"></path>
        <path d="M 497.116600 1.900400 L 497.837900 2.010400 L 498.534100 2.189400 L 499.201600 2.433700 L 499.836600 2.739600 L 500.435600 3.103500 L 500.994800 3.521700 L 501.510700 3.990600 L 501.979600 4.506500 L 502.397800 5.065700 L 502.761700 5.664700 L 503.067600 6.299700 L 503.311900 6.967200 L 503.490900 7.663400 L 503.601000 8.384700 L 503.638500 9.127500 L 503.638500 394.872400 L 503.601000 395.615100 L 503.490900 396.336400 L 503.311900 397.032600 L 503.067600 397.700100 L 502.761700 398.335100 L 502.397800 398.934100 L 501.979600 399.493300 L 501.510700 400.009200 L 500.994800 400.478100 L 500.435600 400.896300 L 499.836600 401.260200 L 499.201600 401.566100 L 498.534100 401.810400 L 497.837900 401.989400 L 497.116600 402.099500 L 496.373900 402.137000 L 9.626000 402.137000 L 8.883200 402.099500 L 8.161900 401.989400 L 7.465700 401.810400 L 6.798200 401.566100 L 6.163200 401.260200 L 5.564200 400.896300 L 5.005000 400.478100 L 4.489100 400.009200 L 4.020200 399.493300 L 3.602000 398.934100 L 3.238100 398.335100 L 2.932300 397.700100 L 2.688000 397.032600 L 2.509000 396.336400 L 2.398900 395.615100 L 2.361400 394.872400 L 2.361400 9.127500 L 2.398900 8.384700 L 2.509000 7.663400 L 2.688000 6.967200 L 2.932300 6.299700 L 3.238100 5.664700 L 3.602000 5.065700 L 4.020200 4.506500 L 4.489100 3.990600 L 5.005000 3.521700 L 5.564200 3.103500 L 6.163200 2.739600 L 6.798200 2.433700 L 7.465700 2.189400 L 8.161900 2.010400 L 8.883200 1.900400 L 9.626000 1.862900 L 496.373900 1.862900 Z M 496.373900 9.127500 L 9.626000 9.127500 L 9.626000 394.872400 L 496.373900 394.872400 Z" transform="scale(1.000000,1.000000) translate(-3.000000,-2.000000)" fill="#000000" opacity="1.000000"></path>
        <path d="M 37.373790 1.000000 C 46.395447 1.000000 51.097779 7.251110 53.689133 15.396600 L 97.356881 154.154658 L 199.568288 154.154658 C 205.038752 154.154658 208.781510 157.469689 208.781510 162.679062 C 208.781510 167.698958 205.038752 171.014000 199.568288 171.014000 L 97.165043 171.014000 C 87.375929 171.014000 82.960958 167.414820 80.369608 159.079855 L 38.429476 23.163441 L 36.797970 23.163441 L 18.755010 85.959660 C 17.219461 91.168724 14.340238 93.631460 9.829507 93.631460 C 4.742948 93.631460 1.000000 90.032405 1.000000 85.391309 C 1.000000 83.496930 1.479864 81.792260 1.863759 80.371179 L 22.210056 14.354553 C 24.609376 6.682747 28.928152 1.000000 37.373790 1.000000 Z M 115.591871 20.321671 C 119.142790 20.321671 120.966410 21.553042 123.653680 25.247144 L 146.399164 56.976758 L 146.783236 56.976758 L 169.336881 25.247144 C 172.120076 21.553042 173.943300 20.321671 177.398307 20.321671 C 182.197331 20.321671 185.748263 23.542077 185.748263 27.993855 C 185.748263 30.077559 185.268277 31.782235 183.828730 33.581958 L 157.436006 69.005674 L 184.020556 104.618323 C 185.460116 106.607365 186.036014 108.312425 186.036014 110.206805 C 186.036014 114.374211 182.581008 117.594618 177.974205 117.594618 C 174.615112 117.594618 172.599665 116.457915 170.104618 112.953522 L 148.318709 81.034193 L 147.838724 81.034193 L 125.380991 113.048184 C 122.981869 116.457915 120.870497 117.594618 117.319182 117.594618 C 112.712763 117.594618 108.873697 114.090231 108.873697 109.827777 C 108.873697 107.460093 109.449595 105.944351 111.176906 103.765991 L 136.417821 69.478978 L 109.641433 33.013594 C 108.201873 31.119215 107.818209 29.793188 107.818209 27.614828 C 107.818209 23.542077 111.176906 20.321671 115.591871 20.321671 Z" transform="scale(1.000000,1.000000) translate(132.667618,122.055369)" fill="#ffffff" opacity="0.850000"></path>
    </g>
</svg>