<?xml version="1.0" encoding="UTF-8" standalone="yes"?>
<!DOCTYPE svg PUBLIC "-//W3C//DTD SVG 1.1//EN" "http://www.w3.org/Graphics/SVG/1.1/DTD/svg11.dtd">

<svg width="25" height="25" viewBox="0 0 25 25" xmlns="http://www.w3.org/2000/svg" xmlns:xlink="http://www.w3.org/1999/xlink" version="1.1" baseProfile="full">
    <g transform="scale(0.050000,-0.050000) translate(0,-500)">
        <path d="M 1.000000 275.907837 C 1.000000 268.177979 7.144293 262.033661 15.072409 262.033661 L 55.307674 262.033661 L 55.307674 221.600143 C 55.307674 213.672043 61.650089 207.726791 69.181854 207.726791 C 77.109947 207.726791 83.254272 213.870300 83.254272 221.600143 L 83.254272 262.033661 L 123.687614 262.033661 C 131.417633 262.033661 137.760040 268.177979 137.760040 275.907837 C 137.760040 283.637665 131.417633 289.980255 123.687614 289.980255 L 83.254272 289.980255 L 83.254272 330.413605 C 83.254272 338.143585 76.911697 344.486023 69.181854 344.486023 C 61.451839 344.486023 55.307674 338.143585 55.307674 330.413605 L 55.307674 289.980255 L 15.072409 289.980255 C 7.144293 289.980255 1.000000 283.637665 1.000000 275.907837 Z M 202.175430 180.176208 L 317.133514 350.234009 C 319.908386 353.999786 320.898865 357.369263 320.898865 361.333313 C 320.898865 369.261444 313.962494 375.405731 305.835999 375.405731 C 298.899628 375.405731 295.132690 373.225494 289.582947 365.099182 L 175.815002 196.229507 L 60.659161 26.568062 C 58.082382 22.802763 56.695110 19.631701 56.695110 15.270492 C 56.695110 6.747825 63.830368 1.000000 72.551308 1.000000 C 79.091972 1.000000 82.857773 3.774842 88.011169 11.109003 Z M 239.240784 86.822792 C 239.240784 79.092445 245.384781 72.750351 253.113495 72.750351 L 361.927582 72.750351 C 369.657898 72.750351 376.000000 79.092445 376.000000 86.822792 C 376.000000 94.551506 369.657898 100.697128 361.927582 100.697128 L 253.113495 100.697128 C 245.384781 100.697128 239.240784 94.551506 239.240784 86.822792 Z" transform="scale(1.000000,1.000000) translate(61.500000,61.797134)" fill="#ffffff" opacity="0.850000"></path>
    </g>
</svg>