<?xml version="1.0" encoding="UTF-8"?>
<!--Generator: Apple Native CoreSVG 175.5-->
<!DOCTYPE svg
PUBLIC "-//W3C//DTD SVG 1.1//EN"
       "http://www.w3.org/Graphics/SVG/1.1/DTD/svg11.dtd">
<svg version="1.1" xmlns="http://www.w3.org/2000/svg" xmlns:xlink="http://www.w3.org/1999/xlink" width="23.0957" height="23.0591">
 <g>
  <rect height="23.0591" opacity="0" width="23.0957" x="0" y="0"/>
  <path d="M0 6.12793C0 6.604 0.378418 6.98242 0.866699 6.98242L3.34473 6.98242L3.34473 9.47266C3.34473 9.96094 3.73535 10.3271 4.19922 10.3271C4.6875 10.3271 5.06592 9.94873 5.06592 9.47266L5.06592 6.98242L7.55615 6.98242C8.03223 6.98242 8.42285 6.604 8.42285 6.12793C8.42285 5.65186 8.03223 5.26123 7.55615 5.26123L5.06592 5.26123L5.06592 2.771C5.06592 2.29492 4.67529 1.9043 4.19922 1.9043C3.72314 1.9043 3.34473 2.29492 3.34473 2.771L3.34473 5.26123L0.866699 5.26123C0.378418 5.26123 0 5.65186 0 6.12793ZM12.3901 12.0239L19.4702 1.55029C19.6411 1.31836 19.7021 1.11084 19.7021 0.866699C19.7021 0.378418 19.2749 0 18.7744 0C18.3472 0 18.1152 0.134277 17.7734 0.634766L10.7666 11.0352L3.67432 21.4844C3.51562 21.7163 3.43018 21.9116 3.43018 22.1802C3.43018 22.7051 3.86963 23.0591 4.40674 23.0591C4.80957 23.0591 5.0415 22.8882 5.35889 22.4365ZM14.6729 17.7734C14.6729 18.2495 15.0513 18.6401 15.5273 18.6401L22.229 18.6401C22.7051 18.6401 23.0957 18.2495 23.0957 17.7734C23.0957 17.2974 22.7051 16.9189 22.229 16.9189L15.5273 16.9189C15.0513 16.9189 14.6729 17.2974 14.6729 17.7734Z" fill="#ffffff" fill-opacity="0.85"/>
 </g>
</svg>
