<?xml version="1.0" encoding="UTF-8" standalone="yes"?>
<!DOCTYPE svg PUBLIC "-//W3C//DTD SVG 1.1//EN" "http://www.w3.org/Graphics/SVG/1.1/DTD/svg11.dtd">

<svg width="45" height="40" viewBox="0 0 45 40" xmlns="http://www.w3.org/2000/svg" xmlns:xlink="http://www.w3.org/1999/xlink" version="1.1" baseProfile="full">
    <g transform="scale(0.100000,-0.100000) translate(0,-400)">
        <path d="M 1.000000 1.000000 L 1.000000 382.833676 L 1.000000 382.833676 L 434.841877 382.833676 L 434.841877 382.833676 L 434.841877 1.000000 L 434.841877 1.000000 L 1.000000 1.000000 Z" transform="scale(1.000000,1.000000) translate(7.268892,8.119726)" fill="#f98e0f" opacity="1.000000"></path>
        <path d="M 452.852800 1.898100 L 453.573600 2.008100 L 454.269200 2.187000 L 454.936200 2.431100 L 455.570700 2.736800 L 456.169200 3.100400 L 456.728000 3.518300 L 457.243500 3.986800 L 457.712000 4.502300 L 458.129900 5.061100 L 458.493500 5.659600 L 458.799200 6.294100 L 459.043300 6.961100 L 459.222200 7.656700 L 459.332200 8.377500 L 459.369600 9.119700 L 459.369600 390.953400 L 459.332200 391.695500 L 459.222200 392.416300 L 459.043300 393.111900 L 458.799200 393.778900 L 458.493500 394.413400 L 458.129900 395.011900 L 457.712000 395.570700 L 457.243500 396.086200 L 456.728000 396.554700 L 456.169200 396.972600 L 455.570700 397.336200 L 454.936200 397.641900 L 454.269200 397.886000 L 453.573600 398.064900 L 452.852800 398.174900 L 452.110700 398.212300 L 18.268800 398.212300 L 17.526600 398.174900 L 16.805800 398.064900 L 16.110200 397.886000 L 15.443200 397.641900 L 14.808700 397.336200 L 14.210200 396.972600 L 13.651400 396.554700 L 13.135900 396.086200 L 12.667400 395.570700 L 12.249500 395.011900 L 11.885900 394.413400 L 11.580200 393.778900 L 11.336100 393.111900 L 11.157200 392.416300 L 11.047200 391.695500 L 11.009800 390.953400 L 11.009800 9.119700 L 11.047200 8.377500 L 11.157200 7.656700 L 11.336100 6.961100 L 11.580200 6.294100 L 11.885900 5.659600 L 12.249500 5.061100 L 12.667400 4.502300 L 13.135900 3.986800 L 13.651400 3.518300 L 14.210200 3.100400 L 14.808700 2.736800 L 15.443200 2.431100 L 16.110200 2.187000 L 16.805800 2.008100 L 17.526600 1.898100 L 18.268800 1.860700 L 452.110700 1.860700 Z M 452.110700 9.119700 L 18.268800 9.119700 L 18.268800 390.953400 L 452.110700 390.953400 Z" transform="scale(1.000000,1.000000) translate(-10.000000,0.000000)" fill="#000000" opacity="1.000000"></path>
        <path d="M 1.000000 184.648271 C 1.000000 179.484665 5.097332 175.380251 10.384219 175.380251 L 37.215105 175.380251 L 37.215105 148.369082 C 37.215105 143.072609 41.444608 139.100520 46.467172 139.100520 C 51.754039 139.100520 55.851176 143.204933 55.851176 148.369082 L 55.851176 175.380251 L 82.814428 175.380251 C 87.969416 175.380251 92.198647 179.484665 92.198647 184.648271 C 92.198647 189.812415 87.969416 194.049165 82.814428 194.049165 L 55.851176 194.049165 L 55.851176 221.060385 C 55.851176 226.224260 51.621887 230.461279 46.467172 230.461279 C 41.312457 230.461279 37.215105 226.224260 37.215105 221.060385 L 37.215105 194.049165 L 10.384219 194.049165 C 5.097332 194.049165 1.000000 189.812415 1.000000 184.648271 Z M 135.154696 120.695720 L 211.814136 234.301035 C 213.664560 236.816780 214.325585 239.067701 214.325585 241.715832 C 214.325585 247.012114 209.699516 251.116726 204.280350 251.116726 C 199.654281 251.116726 197.143377 249.660249 193.442529 244.231577 L 117.575666 131.421006 L 40.783748 18.080417 C 39.065529 15.565051 38.140317 13.446674 38.140317 10.533227 C 38.140317 4.839765 42.898529 1.000000 48.714104 1.000000 C 53.075754 1.000000 55.586985 2.853712 59.023642 7.753196 Z M 159.870698 58.332229 C 159.870698 53.168627 163.967831 48.931327 169.122819 48.931327 L 241.685118 48.931327 C 246.840106 48.931327 251.069345 53.168627 251.069345 58.332229 C 251.069345 63.496378 246.840106 67.600791 241.685118 67.600791 L 169.122819 67.600791 C 163.967831 67.600791 159.870698 63.496378 159.870698 58.332229 Z" transform="scale(1.000000,1.000000) translate(98.271004,72.971683)" fill="#ffffff" opacity="0.850000"></path>
    </g>
</svg>