<?xml version="1.0" encoding="UTF-8" standalone="yes"?>
<!DOCTYPE svg PUBLIC "-//W3C//DTD SVG 1.1//EN" "http://www.w3.org/Graphics/SVG/1.1/DTD/svg11.dtd">

<svg width="500" height="400" viewBox="0 0 500 400" xmlns="http://www.w3.org/2000/svg" xmlns:xlink="http://www.w3.org/1999/xlink" version="1.1" baseProfile="full">
    <g transform="scale(1.000000,-1.000000) translate(0,-400)">
        <path d="M 1.000000 1.000000 L 1.000000 386.744986 L 1.000000 386.744986 L 487.747851 386.744986 L 487.747851 386.744986 L 487.747851 1.000000 L 487.747851 1.000000 L 1.000000 1.000000 Z" transform="scale(1.000000,1.000000) translate(4.909742,4.336676)" fill="#212121" opacity="1.000000"></path>
        <path d="M 496.400200 2.109500 L 497.121500 2.219600 L 497.817700 2.398600 L 498.485200 2.642900 L 499.120200 2.948800 L 499.719200 3.312700 L 500.278400 3.730900 L 500.794300 4.199700 L 501.263200 4.715600 L 501.681400 5.274800 L 502.045300 5.873800 L 502.351200 6.508800 L 502.595500 7.176300 L 502.774500 7.872500 L 502.884600 8.593800 L 502.922100 9.336600 L 502.922100 395.081600 L 502.884600 395.824300 L 502.774500 396.545600 L 502.595500 397.241800 L 502.351200 397.909300 L 502.045300 398.544300 L 501.681400 399.143300 L 501.263200 399.702500 L 500.794300 400.218400 L 500.278400 400.687300 L 499.719200 401.105500 L 499.120200 401.469400 L 498.485200 401.775300 L 497.817700 402.019600 L 497.121500 402.198600 L 496.400200 402.308700 L 495.657500 402.346200 L 8.909700 402.346200 L 8.166900 402.308700 L 7.445600 402.198600 L 6.749400 402.019600 L 6.081900 401.775300 L 5.446900 401.469400 L 4.847900 401.105500 L 4.288700 400.687300 L 3.772800 400.218400 L 3.303900 399.702500 L 2.885800 399.143300 L 2.521900 398.544300 L 2.216000 397.909300 L 1.971700 397.241800 L 1.792700 396.545600 L 1.682600 395.824300 L 1.645100 395.081600 L 1.645100 9.336600 L 1.682600 8.593800 L 1.792700 7.872500 L 1.971700 7.176300 L 2.216000 6.508800 L 2.521900 5.873800 L 2.885800 5.274800 L 3.303900 4.715600 L 3.772800 4.199700 L 4.288700 3.730900 L 4.847900 3.312700 L 5.446900 2.948800 L 6.081900 2.642900 L 6.749400 2.398600 L 7.445600 2.219600 L 8.166900 2.109500 L 8.909700 2.072000 L 495.657500 2.072000 Z M 495.657500 9.336600 L 8.909700 9.336600 L 8.909700 395.081600 L 495.657500 395.081600 Z" transform="scale(1.000000,1.000000) translate(-3.000000,-4.000000)" fill="#000000" opacity="1.000000"></path>
    </g>
</svg>