<?xml version="1.0" encoding="UTF-8" standalone="yes"?>
<!DOCTYPE svg PUBLIC "-//W3C//DTD SVG 1.1//EN" "http://www.w3.org/Graphics/SVG/1.1/DTD/svg11.dtd">

<svg width="500" height="400" viewBox="0 0 500 400" xmlns="http://www.w3.org/2000/svg" xmlns:xlink="http://www.w3.org/1999/xlink" version="1.1" baseProfile="full">
    <g transform="scale(1.000000,-1.000000) translate(0,-400)">
        <path d="M 1.000000 1.000000 L 1.000000 386.744989 L 1.000000 386.744989 L 487.747861 386.744989 L 487.747861 386.744989 L 487.747861 1.000000 L 487.747861 1.000000 L 1.000000 1.000000 Z" transform="scale(1.000000,1.000000) translate(5.626070,6.127506)" fill="#2d2d2d" opacity="1.000000"></path>
        <path d="M 497.116600 1.900400 L 497.837900 2.010400 L 498.534100 2.189400 L 499.201600 2.433700 L 499.836600 2.739600 L 500.435600 3.103500 L 500.994800 3.521700 L 501.510700 3.990600 L 501.979600 4.506500 L 502.397800 5.065700 L 502.761700 5.664700 L 503.067600 6.299700 L 503.311900 6.967200 L 503.490900 7.663400 L 503.601000 8.384700 L 503.638500 9.127500 L 503.638500 394.872400 L 503.601000 395.615100 L 503.490900 396.336400 L 503.311900 397.032600 L 503.067600 397.700100 L 502.761700 398.335100 L 502.397800 398.934100 L 501.979600 399.493300 L 501.510700 400.009200 L 500.994800 400.478100 L 500.435600 400.896300 L 499.836600 401.260200 L 499.201600 401.566100 L 498.534100 401.810400 L 497.837900 401.989400 L 497.116600 402.099500 L 496.373900 402.137000 L 9.626000 402.137000 L 8.883200 402.099500 L 8.161900 401.989400 L 7.465700 401.810400 L 6.798200 401.566100 L 6.163200 401.260200 L 5.564200 400.896300 L 5.005000 400.478100 L 4.489100 400.009200 L 4.020200 399.493300 L 3.602000 398.934100 L 3.238100 398.335100 L 2.932300 397.700100 L 2.688000 397.032600 L 2.509000 396.336400 L 2.398900 395.615100 L 2.361400 394.872400 L 2.361400 9.127500 L 2.398900 8.384700 L 2.509000 7.663400 L 2.688000 6.967200 L 2.932300 6.299700 L 3.238100 5.664700 L 3.602000 5.065700 L 4.020200 4.506500 L 4.489100 3.990600 L 5.005000 3.521700 L 5.564200 3.103500 L 6.163200 2.739600 L 6.798200 2.433700 L 7.465700 2.189400 L 8.161900 2.010400 L 8.883200 1.900400 L 9.626000 1.862900 L 496.373900 1.862900 Z M 496.373900 9.127500 L 9.626000 9.127500 L 9.626000 394.872400 L 496.373900 394.872400 Z" transform="scale(1.000000,1.000000) translate(-3.000000,-2.000000)" fill="#000000" opacity="1.000000"></path>
    </g>
</svg>