<?xml version="1.0" encoding="UTF-8" standalone="yes"?>
<!DOCTYPE svg PUBLIC "-//W3C//DTD SVG 1.1//EN" "http://www.w3.org/Graphics/SVG/1.1/DTD/svg11.dtd">

<svg width="880" height="400" viewBox="0 0 880 400" xmlns="http://www.w3.org/2000/svg" xmlns:xlink="http://www.w3.org/1999/xlink" version="1.1" baseProfile="full">
    <g transform="scale(1.000000,-1.000000) translate(0,-400)">
        <path d="M 1.000000 1.000000 L 1.000000 391.432950 L 1.000000 391.432950 L 870.986549 391.432950 L 870.986549 391.432950 L 870.986549 1.000000 L 870.986549 1.000000 L 1.000000 1.000000 Z" transform="scale(1.000000,1.000000) translate(3.878015,3.497446)" fill="#1e1c3c" opacity="1.000000"></path>
        <path d="M 877.345000 1.822100 L 877.811600 1.893300 L 878.262000 2.009000 L 878.693800 2.167000 L 879.104600 2.364900 L 879.492100 2.600300 L 879.853800 2.870900 L 880.187600 3.174200 L 880.490900 3.508000 L 880.761500 3.869700 L 880.996900 4.257200 L 881.194800 4.668000 L 881.352800 5.099800 L 881.468600 5.550200 L 881.539800 6.016800 L 881.564100 6.497400 L 881.564100 396.930300 L 881.539800 397.410800 L 881.468600 397.877400 L 881.352800 398.327800 L 881.194800 398.759600 L 880.996900 399.170400 L 880.761500 399.557900 L 880.490900 399.919600 L 880.187600 400.253400 L 879.853800 400.556700 L 879.492100 400.827300 L 879.104600 401.062700 L 878.693800 401.260600 L 878.262000 401.418600 L 877.811600 401.534400 L 877.345000 401.605600 L 876.864500 401.629900 L 6.878000 401.629900 L 6.397400 401.605600 L 5.930800 401.534400 L 5.480400 401.418600 L 5.048600 401.260600 L 4.637800 401.062700 L 4.250300 400.827300 L 3.888600 400.556700 L 3.554800 400.253400 L 3.251500 399.919600 L 2.980900 399.557900 L 2.745500 399.170400 L 2.547600 398.759600 L 2.389600 398.327800 L 2.273800 397.877400 L 2.202600 397.410800 L 2.178300 396.930300 L 2.178300 6.497400 L 2.202600 6.016800 L 2.273800 5.550200 L 2.389600 5.099800 L 2.547600 4.668000 L 2.745500 4.257200 L 2.980900 3.869700 L 3.251500 3.508000 L 3.554800 3.174200 L 3.888600 2.870900 L 4.250300 2.600300 L 4.637800 2.364900 L 5.048600 2.167000 L 5.480400 2.009000 L 5.930800 1.893300 L 6.397400 1.822100 L 6.878000 1.797800 L 876.864500 1.797800 Z M 876.864500 6.497400 L 6.878000 6.497400 L 6.878000 396.930300 L 876.864500 396.930300 Z" transform="scale(1.000000,1.000000) translate(-2.000000,-2.000000)" fill="#000000" opacity="1.000000"></path>
    </g>
</svg>