<?xml version="1.0" encoding="UTF-8" standalone="yes"?>
<!DOCTYPE svg PUBLIC "-//W3C//DTD SVG 1.1//EN" "http://www.w3.org/Graphics/SVG/1.1/DTD/svg11.dtd">

<svg width="900" height="400" viewBox="0 0 900 400" xmlns="http://www.w3.org/2000/svg" xmlns:xlink="http://www.w3.org/1999/xlink" version="1.1" baseProfile="full">
    <g transform="scale(1.000000,-1.000000) translate(0,-400)">
        <path d="M 1.000000 1.000000 L 1.000000 391.432954 L 1.000000 391.432954 L 891.961469 391.432954 L 891.961469 391.432954 L 891.961469 1.000000 L 891.961469 1.000000 L 1.000000 1.000000 Z" transform="scale(1.000000,1.000000) translate(2.949396,3.497446)" fill="#1e1c3c" opacity="1.000000"></path>
        <path d="M 898.391300 1.822100 L 898.857900 1.893300 L 899.308300 2.009000 L 899.740100 2.167000 L 900.150900 2.364900 L 900.538400 2.600300 L 900.900100 2.870900 L 901.233900 3.174200 L 901.537200 3.508000 L 901.807800 3.869700 L 902.043200 4.257200 L 902.241100 4.668000 L 902.399100 5.099800 L 902.514900 5.550200 L 902.586100 6.016800 L 902.610400 6.497400 L 902.610400 396.930300 L 902.586100 397.410800 L 902.514900 397.877400 L 902.399100 398.327800 L 902.241100 398.759600 L 902.043200 399.170400 L 901.807800 399.557900 L 901.537200 399.919600 L 901.233900 400.253400 L 900.900100 400.556700 L 900.538400 400.827300 L 900.150900 401.062700 L 899.740100 401.260600 L 899.308300 401.418600 L 898.857900 401.534400 L 898.391300 401.605600 L 897.910800 401.629900 L 6.949300 401.629900 L 6.468700 401.605600 L 6.002100 401.534400 L 5.551700 401.418600 L 5.119900 401.260600 L 4.709100 401.062700 L 4.321600 400.827300 L 3.959900 400.556700 L 3.626100 400.253400 L 3.322800 399.919600 L 3.052200 399.557900 L 2.816900 399.170400 L 2.619000 398.759600 L 2.461000 398.327800 L 2.345200 397.877400 L 2.274000 397.410800 L 2.249700 396.930300 L 2.249700 6.497400 L 2.274000 6.016800 L 2.345200 5.550200 L 2.461000 5.099800 L 2.619000 4.668000 L 2.816900 4.257200 L 3.052200 3.869700 L 3.322800 3.508000 L 3.626100 3.174200 L 3.959900 2.870900 L 4.321600 2.600300 L 4.709100 2.364900 L 5.119900 2.167000 L 5.551700 2.009000 L 6.002100 1.893300 L 6.468700 1.822100 L 6.949300 1.797800 L 897.910800 1.797800 Z M 897.910800 6.497400 L 6.949300 6.497400 L 6.949300 396.930300 L 897.910800 396.930300 Z" transform="scale(1.000000,1.000000) translate(-3.000000,-2.000000)" fill="#000000" opacity="1.000000"></path>
    </g>
</svg>