<?xml version="1.0" encoding="UTF-8" standalone="yes"?>
<!DOCTYPE svg PUBLIC "-//W3C//DTD SVG 1.1//EN" "http://www.w3.org/Graphics/SVG/1.1/DTD/svg11.dtd">

<svg width="900" height="400" viewBox="0 0 900 400" xmlns="http://www.w3.org/2000/svg" xmlns:xlink="http://www.w3.org/1999/xlink" version="1.1" baseProfile="full">
    <g transform="scale(1.000000,-1.000000) translate(0,-400)">
        <path d="M 1.000000 1.000000 L 1.000000 388.445095 L 1.000000 388.445095 L 885.528779 388.445095 L 885.528779 388.445095 L 885.528779 1.000000 L 885.528779 1.000000 L 1.000000 1.000000 Z" transform="scale(1.000000,1.000000) translate(6.698211,4.868596)" fill="#28274d" opacity="1.000000"></path>
        <path d="M 894.964400 1.691800 L 895.680700 1.801200 L 896.372100 1.978900 L 897.034800 2.221500 L 897.665400 2.525300 L 898.260200 2.886600 L 898.815600 3.301800 L 899.327900 3.767400 L 899.793500 4.279700 L 900.208800 4.835100 L 900.570100 5.429900 L 900.873900 6.060500 L 901.116500 6.723200 L 901.294200 7.414600 L 901.403600 8.130900 L 901.440800 8.868500 L 901.440800 396.313600 L 901.403600 397.051100 L 901.294200 397.767400 L 901.116500 398.458800 L 900.873900 399.121500 L 900.570100 399.752100 L 900.208800 400.346900 L 899.793500 400.902300 L 899.327900 401.414600 L 898.815600 401.880200 L 898.260200 402.295500 L 897.665400 402.656800 L 897.034800 402.960600 L 896.372100 403.203200 L 895.680700 403.380900 L 894.964400 403.490300 L 894.226900 403.527500 L 9.698200 403.527500 L 8.960600 403.490300 L 8.244300 403.380900 L 7.552900 403.203200 L 6.890200 402.960600 L 6.259600 402.656800 L 5.664800 402.295500 L 5.109400 401.880200 L 4.597100 401.414600 L 4.131500 400.902300 L 3.716200 400.346900 L 3.354900 399.752100 L 3.051100 399.121500 L 2.808500 398.458800 L 2.630800 397.767400 L 2.521400 397.051100 L 2.484200 396.313600 L 2.484200 8.868500 L 2.521400 8.130900 L 2.630800 7.414600 L 2.808500 6.723200 L 3.051100 6.060500 L 3.354900 5.429900 L 3.716200 4.835100 L 4.131500 4.279700 L 4.597100 3.767400 L 5.109400 3.301800 L 5.664800 2.886600 L 6.259600 2.525300 L 6.890200 2.221500 L 7.552900 1.978900 L 8.244300 1.801200 L 8.960600 1.691800 L 9.698200 1.654600 L 894.226900 1.654600 Z M 894.226900 8.868500 L 9.698200 8.868500 L 9.698200 396.313600 L 894.226900 396.313600 Z" transform="scale(1.000000,1.000000) translate(-2.000000,-3.000000)" fill="#000000" opacity="1.000000"></path>
    </g>
</svg>